<?xml version="1.0" encoding="UTF-8"?>
<svg id="_图层_1" data-name="图层 1" xmlns="http://www.w3.org/2000/svg" viewBox="0 0 1025 1025">
  <defs>
    <style>
      .cls-1 {
        fill: #1a1a1a;
      }

      .cls-2 {
        fill: #fff;
        stroke: #000;
        stroke-miterlimit: 10;
      }
    </style>
  </defs>
  <rect class="cls-2" x=".5" y=".5" width="1024" height="1024"/>
  <g>
    <path class="cls-1" d="M510.96,187.71c-176.38,0-319.95,140.52-324.86,315.71-.1,3.09-.14,6.18-.14,9.29,0,138.66,86.85,257.05,209.11,303.72,17.62,6.73,37.23-3.07,42.6-21.14v-.05c4.88-16.36-3.81-33.57-19.75-39.68-97.64-37.42-166.97-132.04-166.97-242.86,0-3.11,.05-6.21,.16-9.29,4.9-139.29,119.36-250.71,259.84-250.71,108.11,0,200.8,65.98,240.02,159.86,6.47,15.49,23.86,23.31,39.84,18.16l31.85-10.27h0c-39.75-134.57-164.26-232.76-311.71-232.76Z"/>
    <path class="cls-1" d="M839.04,512.42c0,176.33-140.43,319.87-315.56,324.87-5.18,.15-9.44-4.06-9.44-9.24v-46.61c0-4.97,3.97-9,8.94-9.17,139.46-4.71,251.06-119.24,251.06-259.85h0c0-5.13,4.16-9.29,9.29-9.29h46.47c5.08,0,9.24,4.16,9.24,9.24v.05Z"/>
  </g>
</svg>